<svg width="16" height="16" viewBox="0 0 16 16" fill="none" xmlns="http://www.w3.org/2000/svg">
<g clip-path="url(#clip0_702_67)">
<path d="M9.41468 0.585784C10.1957 1.36683 10.1957 2.63316 9.41468 3.41421C8.63364 4.19525 7.36731 4.19525 6.58627 3.41421C5.80523 2.63316 5.80523 1.36683 6.58627 0.585784C7.36728 -0.195261 8.63361 -0.195261 9.41468 0.585784Z" fill="#003056"/>
<path d="M9.41468 6.58578C10.1957 7.36682 10.1957 8.63315 9.41468 9.41419C8.63364 10.1952 7.36731 10.1952 6.58627 9.41419C5.80523 8.63315 5.80523 7.36682 6.58627 6.58578C7.36728 5.80474 8.63361 5.80474 9.41468 6.58578Z" fill="#003056"/>
<path d="M9.41468 12.5858C10.1957 13.3668 10.1957 14.6332 9.41468 15.4142C8.63364 16.1953 7.36731 16.1953 6.58627 15.4142C5.80523 14.6332 5.80523 13.3668 6.58627 12.5858C7.36728 11.8047 8.63361 11.8047 9.41468 12.5858Z" fill="#003056"/>
</g>
<defs>
<clipPath id="clip0_702_67">
<rect width="16" height="16" fill="white"/>
</clipPath>
</defs>
</svg>
