<svg width="20" height="20" viewBox="0 0 20 20" fill="none" xmlns="http://www.w3.org/2000/svg">
<g clip-path="url(#clip0_380_1667)">
<path d="M14.0093 4.57399V1.202C14.0093 0.664435 13.5696 0.224609 13.0319 0.224609H0.97739C0.439825 0.224609 0 0.664435 0 1.202V1.8373V14.5759V15.0159C0 15.3742 0.211768 15.7162 0.521275 15.8791L7.94944 19.7237C8.27523 19.8866 8.66619 19.6587 8.66619 19.2839V15.5372H13.0319C13.5696 15.5372 14.0093 15.0975 14.0093 14.5598V9.21676H12.0545V13.0937C12.0545 13.3707 11.8427 13.5824 11.5658 13.5824H8.68248V8.56516V5.38865V5.29091C8.68248 4.93253 8.47071 4.59045 8.1612 4.42755L3.77924 2.17955H11.5658C11.8427 2.17955 12.0545 2.39132 12.0545 2.66825V4.59045H14.0093V4.57399Z" fill="#7F97AA"/>
<path d="M16.5179 2.97597L19.6944 6.15248C20.1016 6.55973 20.1016 7.16245 19.6944 7.5697L16.5179 10.7462C16.1106 11.1535 15.4914 11.1699 15.0842 10.7627C14.6934 10.3719 14.7421 9.72011 15.1169 9.32916L16.5503 7.91195H10.9956C10.7188 7.91195 10.4418 7.79792 10.2626 7.58615C9.80645 7.09745 9.92048 6.23409 10.5069 5.9083C10.6535 5.82685 10.8327 5.77798 10.9956 5.77798H16.5504C16.5504 5.77798 15.1334 4.36076 15.1171 4.36076C14.7423 3.9861 14.6934 3.31822 15.0844 2.94355C15.4753 2.55259 16.1106 2.56872 16.5179 2.97597Z" fill="#7F97AA"/>
</g>
<defs>
<clipPath id="clip0_380_1667">
<rect width="19.9998" height="20" fill="white"/>
</clipPath>
</defs>
</svg>
