<svg width="20" height="20" viewBox="0 0 20 20" fill="none" xmlns="http://www.w3.org/2000/svg">
<path d="M0 10C0 4.47715 4.47715 0 10 0C15.5228 0 20 4.47715 20 10C20 15.5228 15.5228 20 10 20C4.47715 20 0 15.5228 0 10Z" fill="#7F97AA"/>
<g clip-path="url(#clip0_380_1677)">
<path d="M9.99963 5.82812C7.32478 5.82812 4.89909 7.29156 3.10918 9.66857C2.96312 9.86331 2.96312 10.1354 3.10918 10.3301C4.89909 12.71 7.32478 14.1734 9.99963 14.1734C12.6745 14.1734 15.1002 12.71 16.8901 10.333C17.0361 10.1382 17.0361 9.86617 16.8901 9.67143C15.1002 7.29156 12.6745 5.82812 9.99963 5.82812ZM10.1915 12.9391C8.41592 13.0508 6.94962 11.5874 7.06131 9.8089C7.15295 8.3426 8.34146 7.15409 9.80775 7.06245C11.5834 6.95076 13.0496 8.41419 12.938 10.1927C12.8435 11.6561 11.6549 12.8446 10.1915 12.9391ZM10.1027 11.5816C9.1462 11.6418 8.35578 10.8542 8.41878 9.89768C8.46747 9.10725 9.10897 8.46861 9.8994 8.41706C10.8559 8.35692 11.6464 9.14448 11.5834 10.101C11.5318 10.8943 10.8903 11.5329 10.1027 11.5816Z" fill="#003A68"/>
</g>
<defs>
<clipPath id="clip0_380_1677">
<rect width="14" height="14" fill="white" transform="translate(2.99963 3)"/>
</clipPath>
</defs>
</svg>
