<svg width="18" height="18" viewBox="0 0 18 18" fill="none" xmlns="http://www.w3.org/2000/svg">
<path d="M17.3332 0H0.740235C0.351868 0 0.0371094 0.314758 0.0371094 0.703125C0.0371094 2.66116 0.876465 4.53049 2.33998 5.83141L5.41931 8.56838C5.95325 9.04299 6.25949 9.72496 6.25949 10.4395V17.2961C6.25949 17.8564 6.88571 18.1923 7.3525 17.8809L11.5008 15.1155C11.6964 14.9851 11.8139 14.7656 11.8139 14.5305V10.4395C11.8139 9.72496 12.1202 9.04299 12.6541 8.56838L15.7333 5.83141C17.1968 4.53049 18.0362 2.66116 18.0362 0.703125C18.0362 0.314758 17.7214 0 17.3332 0ZM14.799 4.78029L11.7198 7.5174C10.886 8.2587 10.4077 9.32369 10.4077 10.4393V14.1542L7.66561 15.9822V10.4395C7.66561 9.32369 7.18729 8.2587 6.35343 7.5174L3.27423 4.78043C2.28738 3.90303 1.65746 2.70085 1.48882 1.40611H16.5844C16.4158 2.70085 15.786 3.90303 14.799 4.78029Z" fill="#00B3E3"/>
</svg>
