<svg width="20" height="20" viewBox="0 0 20 20" fill="none" xmlns="http://www.w3.org/2000/svg">
<path d="M19.5374 12.63L17.4275 10.975C17.4674 10.655 17.4974 10.33 17.4974 9.99998C17.4974 9.66998 17.4674 9.34499 17.4275 9.02498L19.5425 7.36996C19.7324 7.21996 19.7875 6.94996 19.6625 6.72998L17.6624 3.26498C17.5374 3.04997 17.2775 2.95997 17.0525 3.04997L14.5625 4.05497C14.0474 3.65995 13.4825 3.32498 12.8725 3.06998L12.4975 0.42C12.4524 0.185015 12.2474 0 11.9975 0H7.99748C7.74749 0 7.54246 0.185015 7.50248 0.42L7.12748 3.06998C6.51749 3.32498 5.95246 3.65498 5.43749 4.05497L2.9475 3.04997C2.7225 2.96498 2.46248 3.04997 2.33751 3.26498L0.33745 6.72998C0.212435 6.94499 0.267466 7.21499 0.45745 7.36996L2.56743 9.02498C2.52745 9.34499 2.49745 9.66998 2.49745 9.99998C2.49745 10.33 2.52745 10.655 2.56743 10.975L0.45745 12.63C0.267466 12.78 0.212435 13.05 0.33745 13.27L2.33746 16.735C2.46248 16.95 2.72245 17.04 2.94745 16.95L5.43745 15.945C5.95246 16.34 6.51745 16.675 7.12743 16.93L7.50243 19.58C7.54241 19.8149 7.74745 20 7.99743 20H11.9974C12.2474 20 12.4524 19.8149 12.4924 19.58L12.8674 16.93C13.4774 16.675 14.0424 16.345 14.5574 15.945L17.0474 16.95C17.2724 17.035 17.5324 16.95 17.6574 16.735L19.6574 13.27C19.7825 13.055 19.7274 12.785 19.5374 12.63ZM9.99744 13.5C8.06244 13.5 6.49743 11.935 6.49743 9.99998C6.49743 8.06498 8.06244 6.50001 9.99744 6.50001C11.9324 6.50001 13.4975 8.06503 13.4975 10C13.4975 11.935 11.9324 13.5 9.99744 13.5Z" fill="#7F97AA"/>
</svg>
