<svg width="172" height="40" viewBox="0 0 172 40" fill="none" xmlns="http://www.w3.org/2000/svg">
<path d="M133.67 30.3834H146.364V33.1334H130.655V8.11426H145.679V10.8642H133.67V30.3834Z" fill="white"/>
<path d="M135.841 18.943H140.449V21.693H135.841V18.943Z" fill="white"/>
<path d="M172 20.6432C172 22.5395 171.733 24.2739 171.19 25.8646C170.648 27.4462 169.883 28.8122 168.878 29.9625C167.873 31.1128 166.663 32.0024 165.249 32.6495C163.834 33.2876 162.251 33.6111 160.499 33.6111C158.684 33.6111 157.064 33.2876 155.633 32.6495C154.201 32.0115 152.991 31.1128 151.994 29.9625C151.007 28.8122 150.242 27.4551 149.717 25.8646C149.192 24.2828 148.926 22.5395 148.926 20.6432C148.926 18.738 149.202 16.9857 149.744 15.395C150.287 13.8043 151.06 12.4384 152.057 11.288C153.053 10.1377 154.263 9.24801 155.686 8.60103C157.109 7.96291 158.692 7.6394 160.463 7.6394C162.26 7.6394 163.878 7.96291 165.302 8.60103C166.725 9.23907 167.935 10.1377 168.931 11.288C169.918 12.4384 170.683 13.8043 171.208 15.395C171.733 16.9857 172 18.738 172 20.6432ZM169.002 20.6432C169.002 18.9627 168.78 17.4799 168.344 16.1948C167.908 14.9097 167.303 13.8402 166.538 12.9775C165.773 12.1148 164.866 11.4678 163.825 11.0274C162.785 10.5871 161.664 10.3624 160.463 10.3624C159.262 10.3624 158.15 10.5871 157.1 11.0274C156.06 11.4678 155.153 12.1238 154.387 12.9775C153.622 13.8402 153.018 14.9097 152.582 16.1948C152.145 17.4799 151.923 18.9627 151.923 20.6432C151.923 22.3238 152.145 23.8066 152.591 25.0827C153.035 26.3588 153.64 27.4282 154.405 28.2909C155.17 29.1537 156.077 29.8007 157.118 30.2321C158.159 30.6724 159.289 30.8881 160.499 30.8881C161.7 30.8881 162.811 30.6724 163.834 30.2321C164.866 29.7918 165.764 29.1447 166.529 28.2909C167.295 27.4282 167.899 26.3588 168.335 25.0827C168.78 23.8066 169.002 22.3238 169.002 20.6432Z" fill="white"/>
<path d="M9.21555 22.4391V22.3673C10.203 22.1965 11.1013 21.9179 11.9109 21.5405C12.7203 21.163 13.4141 20.6867 13.9923 20.1026C14.5706 19.5184 15.0242 18.8265 15.3444 18.0266C15.6647 17.2268 15.8247 16.3281 15.8247 15.3126C15.8247 13.6052 15.3711 12.1852 14.4549 11.0439C13.5386 9.90265 12.2221 9.09379 10.4965 8.62649C9.87376 8.44681 9.17995 8.32092 8.42387 8.24006C7.65886 8.1592 6.74265 8.11426 5.65742 8.11426H0V10.8642H5.6841C6.6359 10.8642 7.41869 10.8912 8.03249 10.9541C8.64627 11.017 9.17995 11.1158 9.62476 11.2506C10.5587 11.5382 11.2971 12.0056 11.8307 12.6616C12.3645 13.3176 12.6313 14.1803 12.6491 15.2497C12.6491 16.4001 12.3645 17.3257 11.7952 18.0356C11.2259 18.7456 10.4164 19.2668 9.36676 19.5903C8.85084 19.7521 8.26373 19.8689 7.6055 19.9228C6.94724 19.9858 6.16445 20.0127 5.23934 20.0127H4.42986L13.5298 33.1154H16.5453L9.21555 22.4391Z" fill="white"/>
<path d="M57.2774 20.2029L60.2929 20.2658V32.362C60.0349 32.4967 59.6524 32.6406 59.1542 32.7843C58.6561 32.9281 58.0868 33.0629 57.4463 33.1887C56.8059 33.3145 56.1209 33.4134 55.3827 33.4853C54.6443 33.5572 53.9238 33.5931 53.2122 33.5931C51.0862 33.5931 49.2182 33.2966 47.5993 32.7124C45.9803 32.1283 44.6193 31.3015 43.5163 30.2231C42.4221 29.1537 41.586 27.8506 41.0167 26.3139C40.4474 24.7771 40.1627 23.0697 40.1627 21.1914C40.1627 19.1515 40.4741 17.2911 41.0968 15.6196C41.7194 13.9481 42.6179 12.5192 43.8009 11.342C44.984 10.1557 46.4073 9.24801 48.0796 8.60103C49.7519 7.96291 51.5932 7.6394 53.6036 7.6394C54.1462 7.6394 54.6888 7.65738 55.2314 7.70231C55.774 7.74725 56.29 7.81016 56.7881 7.89107C57.2774 7.97193 57.7399 8.07075 58.158 8.1786C58.5761 8.28644 58.9318 8.41224 59.2165 8.53805V11.2341C58.4782 10.9824 57.6242 10.7758 56.6636 10.605C55.7029 10.4343 54.7422 10.3534 53.7725 10.3534C52.3671 10.3534 51.0239 10.5691 49.743 11.0005C48.462 11.4319 47.3413 12.0788 46.3628 12.9506C45.3843 13.8223 44.6104 14.9187 44.0322 16.2308C43.4541 17.5428 43.1605 19.0886 43.1605 20.8589C43.1605 22.5933 43.4006 24.0852 43.881 25.3433C44.3614 26.6014 45.0462 27.6439 45.927 28.4617C46.8076 29.2885 47.875 29.8906 49.1293 30.286C50.3834 30.6814 51.7801 30.8791 53.3189 30.8791C54.0306 30.8791 54.7333 30.8431 55.4271 30.7713C56.1209 30.6994 56.7347 30.5915 57.2774 30.4567V20.2029Z" fill="white"/>
<path d="M24.1068 30.3834H36.8004V33.1334H21.0912V8.11426H36.1154V10.8642H24.1068V30.3834Z" fill="white"/>
<path d="M26.277 18.943H30.8847V21.693H26.277V18.943Z" fill="white"/>
<path d="M68.6364 30.3834H81.3302V33.1334H65.6208V8.11426H80.6449V10.8642H68.6364V30.3834Z" fill="white"/>
<path d="M70.8064 18.943H75.4142V21.693H70.8064V18.943Z" fill="white"/>
<path d="M89.3 8.11426H86.1333L93.9249 19.3027L95.5083 17.0201L89.3 8.11426Z" fill="white"/>
<path d="M98 25.109L103.525 33.1341H106.691L99.5834 22.8263L98 25.109Z" fill="white"/>
<path d="M125.104 23.0149C124.659 22.206 124.063 21.55 123.342 21.0467C122.613 20.5435 121.786 20.1481 120.861 19.8606C119.936 19.5729 118.984 19.3123 118.023 19.0787C117.312 18.9079 116.627 18.7192 115.969 18.5215C115.31 18.3238 114.732 18.0632 114.233 17.7577C113.736 17.4431 113.335 17.0477 113.042 16.5714C112.748 16.0951 112.597 15.484 112.597 14.7471C112.597 14.082 112.704 13.4889 112.926 12.9407C113.148 12.4016 113.486 11.9342 113.94 11.5568C114.394 11.1794 114.972 10.8828 115.666 10.6761C116.36 10.4694 117.169 10.3705 118.112 10.3705C119.358 10.3795 120.532 10.5233 121.617 10.8019C122.711 11.0805 123.77 11.431 124.793 11.8713V9.0495C123.841 8.63608 122.8 8.30361 121.653 8.05193C120.514 7.80033 119.278 7.66553 117.961 7.66553C116.805 7.66553 115.71 7.80931 114.687 8.09687C113.665 8.38448 112.757 8.82479 111.974 9.42691C111.191 10.029 110.569 10.7839 110.106 11.7006C109.644 12.6173 109.412 13.7136 109.412 14.9807C109.412 16.2029 109.635 17.2094 110.071 17.9913C110.507 18.7731 111.085 19.4202 111.814 19.9144C112.534 20.4177 113.353 20.8042 114.278 21.0828C115.194 21.3613 116.138 21.6129 117.098 21.8377C117.827 22.0084 118.521 22.1971 119.18 22.3948C119.838 22.5925 120.425 22.8531 120.932 23.1677C121.439 23.4822 121.839 23.8866 122.142 24.3718C122.444 24.8572 122.595 25.4773 122.595 26.2231C122.595 27.1308 122.426 27.8947 122.079 28.4968C121.733 29.0989 121.261 29.5752 120.674 29.9257C120.078 30.2762 119.393 30.5278 118.61 30.6716C117.827 30.8244 117 30.8962 116.138 30.8962C115.603 30.8962 115.043 30.8603 114.438 30.7884C113.834 30.7166 113.238 30.6087 112.642 30.4828C112.045 30.3481 111.476 30.1953 110.916 30.0066C110.427 29.8448 109.982 29.6561 109.581 29.4674L112.117 33.134C112.161 33.1429 112.196 33.1519 112.241 33.1699C112.855 33.3047 113.496 33.4126 114.162 33.4934C114.839 33.5743 115.488 33.6192 116.138 33.6192C117.534 33.6192 118.815 33.4755 119.989 33.1789C121.163 32.8824 122.177 32.433 123.031 31.8309C123.894 31.2288 124.561 30.4559 125.05 29.5123C125.54 28.5687 125.78 27.4544 125.78 26.1602C125.771 24.8661 125.549 23.8237 125.104 23.0149Z" fill="white"/>
<path d="M86.1333 25.9353H89.3L93.9249 19.3031L92.3416 17.0205L86.1333 25.9353Z" fill="white"/>
<path d="M109.839 0L82.1389 40H85.1453L112.997 0H109.839Z" fill="#4BB1E0"/>
</svg>
